# xmcd
#
# Track frame offsets:
#  150
#  20599
#  54123
#  107627
#  165036
#  204856
#  231930
#  258300
#  279085
#  300821
#
# Disc length: 4268 seconds
#
# Revision: 0
# Processed by: cddbd v1.5.1PL0 Copyright (c) Steve Scherf et al.
# Submitted via: Collectorz.com Music Collector 6.9
#
DISCID=6610aa0a
DTITLE=dave alvin - Rare Radio Appearences '93-'97
DYEAR=1997
DGENRE=
TTITLE0=dave alvin feat. Rick Solem on piano - Hollywood Bed
TTITLE1=dave alvin feat. Rick Solem on piano - Between The Cracks
TTITLE2=dave alvin feat. Rick Solem on piano - Plastic Rose
TTITLE3=dave alvin feat. Rick Solem on piano - Stranger In Town
TTITLE4=dave alvin feat. Rick Solem on piano - Museum Of Heart
TTITLE5=dave alvin feat. Rick Solem on piano - Little Honey
TTITLE6=dave alvin feat. Kelly Joe Phelps on guitar - Blackjack David
TTITLE7=dave alvin feat. Kelly Joe Phelps on guitar - Out In California
TTITLE8=dave alvin feat. Kelly Joe Phelps on guitar - Mary Brown
TTITLE9=Every Night About This Time
EXTD=
EXTT0=
EXTT1=
EXTT2=
EXTT3=
EXTT4=
EXTT5=
EXTT6=
EXTT7=
EXTT8=
EXTT9=
PLAYORDER=
